<svg xmlns="http://www.w3.org/2000/svg" width="33.734" height="20" viewBox="0 0 33.734 20"><path id="Icon_awesome-tripadvisor" fill="#efc109" d="M9.745 17.431a1.4 1.4 0 1 1-1.4-1.4 1.4 1.4 0 0 1 1.4 1.4Zm15.518-1.4a1.4 1.4 0 1 0 1.4 1.4 1.4 1.4 0 0 0-1.4-1.403ZM30.5 24.2a8.442 8.442 0 0 1-11.853-1.438l-1.814 2.713-1.8-2.69a8.435 8.435 0 0 1-13.38-10.272A10.938 10.938 0 0 0 0 9.166h5.288A21 21 0 0 1 16.829 6a20.521 20.521 0 0 1 11.255 3.124h5.635a10.877 10.877 0 0 0-1.66 3.376A8.443 8.443 0 0 1 30.5 24.2Zm-15.31-6.7a6.74 6.74 0 1 0-6.739 6.741A6.74 6.74 0 0 0 15.19 17.5Zm1.674-.612A8.415 8.415 0 0 1 25.012 9.1a19.863 19.863 0 0 0-8.183-1.629 20.868 20.868 0 0 0-8.209 1.6 8.447 8.447 0 0 1 8.244 7.823Zm14.742-1.685a6.74 6.74 0 1 0-12.647 4.667 6.74 6.74 0 0 0 12.648-4.666ZM12.511 17.43v.007a4.173 4.173 0 1 1 0-.007Zm-1.436 0a2.734 2.734 0 1 0-2.729 2.74 2.734 2.734 0 0 0 2.729-2.74Zm18.356 0a4.171 4.171 0 1 1-4.168-4.173 4.17 4.17 0 0 1 4.168 4.173Zm-1.431 0a2.734 2.734 0 1 0-2.733 2.735A2.734 2.734 0 0 0 28 17.43Z" data-name="Icon awesome-tripadvisor" transform="translate(0 -5.994)"/></svg>