<svg xmlns="http://www.w3.org/2000/svg" width="25" height="25" viewBox="0 0 25 25"><g id="Icon_Money" fill="none" stroke="#efc109" stroke-linecap="round" stroke-linejoin="round" stroke-width="2" data-name="Icon Money" transform="translate(1 1)"><g id="Group_2015" data-name="Group 2015" transform="translate(7.587 4.162)"><path id="Path_2359" d="M90.74 221.291a4.185 4.185 0 0 0 3.785 1.941 4.551 4.551 0 0 0 3.33-1.3 2.43 2.43 0 0 0 .033-3.346 4.891 4.891 0 0 0-3.151-1.283c-1.516-.229-3.434-.571-3.915-2.283-.009-.031-.017-.063-.025-.1s-.014-.063-.02-.1a1.973 1.973 0 0 1-.037-.372c0-1.537 1.81-2.785 4.042-2.785a4.273 4.273 0 0 1 3.784 1.806" data-name="Path 2359" transform="translate(-90.74 -209.873)"/><path id="Line_47" d="M0 0v15.161" data-name="Line 47" transform="translate(3.913)"/></g><circle id="Ellipse_140" cx="11.5" cy="11.5" r="11.5" data-name="Ellipse 140"/></g></svg>