<svg xmlns="http://www.w3.org/2000/svg" width="48" height="48" fill="none" viewBox="0 0 48 48"><path fill="#F5F5F5" d="M24.012 8.59a27.153 27.153 0 0 0-15.29 4.706H0l3.926 4.27a11.994 11.994 0 0 0 8.08 20.86 11.952 11.952 0 0 0 8.15-3.2L24 39.41l3.844-4.18a11.944 11.944 0 0 0 8.144 3.196 12 12 0 0 0 10.98-16.842 11.963 11.963 0 0 0-2.894-4.018L48 13.296h-8.7A27.146 27.146 0 0 0 24.012 8.59ZM24 12.51c3.062 0 6.126.606 9.008 1.806C27.886 16.276 24 20.86 24 26.2c0-5.342-3.884-9.924-9.008-11.884A23.441 23.441 0 0 1 24 12.512v-.002Zm-11.996 5.804a8.119 8.119 0 1 1 0 16.238 8.119 8.119 0 0 1 0-16.238Zm23.984.004a8.114 8.114 0 1 1 .006 16.228 8.114 8.114 0 0 1-.006-16.228Zm-23.984 3.86a4.256 4.256 0 1 0 0 8.512 4.256 4.256 0 0 0 0-8.512Zm23.984 0a4.256 4.256 0 1 0 0 8.511 4.256 4.256 0 0 0 0-8.511Z"/></svg>