<svg xmlns="http://www.w3.org/2000/svg" width="109" height="30" fill="none" viewBox="0 0 109 30"><path fill="#E8C143" d="M37.557 4.017v2.9h4.38v1.732h-4.395l.015 4.125h-1.914V2.299h7.222v1.718h-5.308ZM54.79 7.589c0 .916-.154 1.718-.463 2.405a5.225 5.225 0 0 1-1.21 1.704 5.136 5.136 0 0 1-1.69 1.016 5.465 5.465 0 0 1-1.884.343c-.638 0-1.271-.114-1.9-.343a5.217 5.217 0 0 1-1.689-1.046 5.4 5.4 0 0 1-1.21-1.719c-.31-.687-.464-1.484-.464-2.39 0-.947.154-1.769.463-2.466.31-.697.713-1.275 1.211-1.733a4.82 4.82 0 0 1 1.69-1.016A5.505 5.505 0 0 1 49.543 2c.628 0 1.255.125 1.883.374a4.98 4.98 0 0 1 1.69 1.075c.498.469.902 1.051 1.211 1.749.31.697.464 1.494.464 2.39Zm-1.823 0a4.19 4.19 0 0 0-.255-1.465 3.545 3.545 0 0 0-.687-1.195 3.113 3.113 0 0 0-1.092-.792 3.194 3.194 0 0 0-1.39-.3c-.519 0-.992.1-1.42.3a3.15 3.15 0 0 0-1.077.792 3.575 3.575 0 0 0-.703 1.18 4.47 4.47 0 0 0-.24 1.48c0 .508.08.98.24 1.42.17.437.404.82.703 1.15.299.328.657.587 1.076.777.429.189.902.284 1.42.284.509 0 .972-.09 1.391-.27.429-.189.793-.443 1.092-.761.299-.33.528-.713.687-1.151.17-.448.255-.931.255-1.45ZM62.773 12.774l-1.062-1.66c-.149-.218-.303-.447-.463-.686-.15-.24-.3-.469-.449-.688-.14-.219-.279-.423-.418-.612-.13-.2-.244-.369-.344-.508h-1.48l-.015 4.154h-1.914V2.299h4.77c.498 0 .956.075 1.375.224.419.15.777.359 1.077.628.299.269.533.592.702.97a3 3 0 0 1 .254 1.241c0 .418-.074.812-.224 1.18-.14.36-.339.678-.598.957-.249.279-.543.508-.882.687-.329.18-.683.294-1.062.344l.135.06 2.527 4.004v.18h-1.929Zm.254-7.382c0-.379-.124-.697-.374-.956-.249-.26-.648-.389-1.196-.389h-2.9v2.75l2.766.03c.538 0 .957-.14 1.256-.419.299-.289.448-.628.448-1.016ZM67.126 12.774V2.299h7.251v1.718h-5.322v2.735H73.6V8.41h-4.545v2.63h5.472v1.734h-7.401ZM75.11 2.299h2.003l2.871 7.904L82.78 2.3h1.929l-3.917 10.504h-1.6L75.11 2.3ZM86.225 12.774V2.299h7.251v1.718h-5.323v2.735H92.7V8.41h-4.546v2.63h5.473v1.734h-7.401ZM101.642 12.774l-1.062-1.66c-.149-.218-.304-.447-.463-.686-.15-.24-.3-.469-.449-.688-.14-.219-.279-.423-.418-.612-.13-.2-.245-.369-.344-.508h-1.48l-.016 4.154h-1.913V2.299h4.769c.499 0 .957.075 1.376.224.419.15.777.359 1.076.628.299.269.534.592.703.97.17.38.254.793.254 1.241a3.1 3.1 0 0 1-.224 1.18 2.99 2.99 0 0 1-.598.957 3.138 3.138 0 0 1-.882.687c-.329.18-.683.294-1.062.344l.135.06 2.527 4.004v.18h-1.929Zm.254-7.382c0-.379-.125-.697-.374-.956-.249-.26-.648-.389-1.196-.389h-2.9v2.75l2.766.03c.538 0 .956-.14 1.255-.419.3-.289.449-.628.449-1.016ZM35 17.241h2.004l2.87 7.905 2.796-7.905H44.6l-3.917 10.505h-1.6L35 17.241ZM51.474 27.716l-.867-2.346-4.157.015-.882 2.331h-1.84l4.127-10.505h1.57l3.948 10.505h-1.9Zm-2.916-7.95h-.015l-1.48 3.916h2.946l-1.45-3.915ZM58.715 27.985c-.538 0-1.102-.114-1.69-.344a5.15 5.15 0 0 1-1.6-1.06 5.824 5.824 0 0 1-1.196-1.734c-.309-.687-.463-1.49-.463-2.406 0-.846.144-1.608.434-2.286.289-.687.667-1.27 1.136-1.748a4.903 4.903 0 0 1 1.57-1.09 4.346 4.346 0 0 1 1.764-.39c.469 0 .902.05 1.3.15a5.663 5.663 0 0 1 2.094.986c.3.22.568.454.807.703l-.837 1.569c-.21-.2-.428-.389-.658-.568a4.213 4.213 0 0 0-.747-.493 4.178 4.178 0 0 0-.867-.36 3.641 3.641 0 0 0-1.017-.134c-.389 0-.768.085-1.136.255-.37.169-.698.413-.987.732-.28.318-.509.707-.688 1.165-.17.458-.254.976-.254 1.554 0 .558.084 1.066.254 1.524.17.459.394.847.673 1.166.289.319.618.568.986.747.37.17.748.254 1.137.254.369 0 .708-.045 1.017-.134.319-.09.618-.21.897-.36.279-.148.538-.318.777-.507.24-.19.464-.384.673-.583l.942 1.36c-.14.2-.339.418-.598.657-.26.23-.573.449-.942.658-.369.199-.788.368-1.256.508-.468.14-.977.21-1.525.21ZM71.04 27.716l-.868-2.346-4.156.015-.882 2.331h-1.84l4.127-10.505h1.57l3.948 10.505h-1.9Zm-2.916-7.95h-.015l-1.48 3.916h2.945l-1.45-3.915ZM78.179 18.96v8.756H76.25l-.015-8.756h-3.558V17.24h9.06v1.719H78.18ZM83.91 27.716V17.241h1.945v10.475H83.91ZM98.566 22.531c0 .917-.155 1.718-.464 2.406a5.225 5.225 0 0 1-1.211 1.703 5.137 5.137 0 0 1-1.69 1.016 5.465 5.465 0 0 1-1.884.344c-.637 0-1.27-.115-1.898-.344a5.218 5.218 0 0 1-1.69-1.046 5.4 5.4 0 0 1-1.211-1.718c-.31-.687-.464-1.484-.464-2.39 0-.947.155-1.77.464-2.466.309-.698.713-1.276 1.211-1.734a4.821 4.821 0 0 1 1.69-1.016 5.504 5.504 0 0 1 1.898-.344c.628 0 1.256.125 1.884.374.628.24 1.192.598 1.69 1.076.498.468.902 1.05 1.211 1.748.309.697.463 1.494.463 2.391Zm-1.825 0c0-.518-.084-1.006-.254-1.464a3.542 3.542 0 0 0-.688-1.196 3.113 3.113 0 0 0-1.091-.792 3.195 3.195 0 0 0-1.39-.299c-.519 0-.992.1-1.421.3a3.15 3.15 0 0 0-1.077.791 3.573 3.573 0 0 0-.702 1.18 4.47 4.47 0 0 0-.24 1.48c0 .508.08.981.24 1.42.17.438.404.821.703 1.15.299.329.657.588 1.076.777.429.19.902.284 1.42.284.509 0 .972-.09 1.391-.269.429-.19.792-.443 1.091-.762.3-.329.529-.712.688-1.15.17-.449.254-.932.254-1.45ZM108.148 27.716l-5.981-6.605v6.605h-1.899V17.241h1.122l5.726 6.291v-6.29H109v10.474h-.852ZM30 15c0 8.284-6.716 15-15 15-8.284 0-15-6.716-15-15C0 6.716 6.716 0 15 0c8.284 0 15 6.716 15 15Z"/><path fill="#000" fill-rule="evenodd" d="M14.025 21.547V8h10.499l-9.762 18L6.96 11.612l-.41-.754L5 8h1.678l.498.917.447.826 6.402 11.804Zm1.475-4.41v4.41l2.392-4.41H15.5Zm3.191-1.475 3.355-6.187H15.5v6.187h3.191Z" clip-rule="evenodd"/></svg>