<svg xmlns="http://www.w3.org/2000/svg" width="78.494" height="80" viewBox="0 0 78.494 80"><defs><style>.a{fill:#fff}</style></defs><g><path d="m2.06 29.383.507-1.26 1.412.642-.5 1.25 1.116.485.507-1.26 1.567.688.386-.961c-.508-.212-1.062-.465-1.57-.677L6 27.009l1.571.677.387-.961-1.575-.667.479-1.188-1.116-.485-.474 1.178c-.486-.2-.922-.413-1.416-.632l.474-1.178-1.105-.481-.479 1.188-1.454-.658-.387.961c.465.2.98.423 1.463.637l-.52 1.291-1.455-.658-.39.971 1.463.637-.508 1.26Zm1.405-3.492c.494.219.928.428 1.416.632l-.516 1.281a69.159 69.159 0 0 1-1.411-.642ZM12.995 19.726l-2.31-1.872 1.958-2.226-1.279-1.036-1.958 2.226-1.322-1.072 2.419-2.75-1.27-1.029-3.573 4.062 6.181 5.008ZM22.518 12.138a3.732 3.732 0 0 0 1.379-5.45 4.148 4.148 0 0 0-5.657-1.643 3.729 3.729 0 0 0-1.35 5.5 4.089 4.089 0 0 0 5.628 1.593Zm-4.133-2.387a2.158 2.158 0 0 1 .733-3.249 2.362 2.362 0 0 1 3.3 1.007 2.11 2.11 0 0 1-.78 3.172 2.309 2.309 0 0 1-3.251-.93ZM32.448 8.26l-.484-2.887.569-.088 2.82 2.526 1.7-.262-.064-.383-2.563-2.319a2.534 2.534 0 0 0 1.56-2.619 2.227 2.227 0 0 0-2.8-1.945l-3.783.584 1.3 7.663Zm.722-6.36c.764-.118 1.031.222 1.1.616s-.161.855-.924.973c0 0-1.062.153-1.654.244L31.43 2.17ZM48.231 7.04l-3.93-.674.27-1.45 3.216.551.283-1.526-3.226-.553c.1-.512.2-1.012.294-1.514l3.805.653.293-1.57L43.659 0l-1.434 7.641 5.714.98ZM62.997 7.175l.138-.231-1.491-.821-4.632 3.655.9-5.711-1.542-.849-.127.236-1.077 8.077 1.22.672ZM66.573 21.052l1.275-1.041-2.588-2.919 1.169-.954 2.116 2.387 1.23-1.005-2.124-2.4c.413-.337.825-.659 1.228-.989l2.506 2.826 1.265-1.034-3.671-4.142-6.169 5.023ZM69.993 27.033l2.844-1.047.207.517-2 3.167.616 1.541.376-.139 1.839-2.883a2.718 2.718 0 0 0 2.991.927 2.128 2.128 0 0 0 1.407-3.033l-1.372-3.433-7.548 2.791Zm6-2.21.632 1.582c.277.693-.015 1.014-.4 1.157s-.9.025-1.182-.668c0 0-.375-.966-.589-1.5ZM10.522 57.063l-.748-1.486-5.974.506 4.1-4.226-.773-1.536-.244.126-5.641 6.083.612 1.217 8.416-.568ZM6.363 64.818l1.228 1.218 1.512-.587 2.23 2.213-.7 1.391 1.26 1.25 3.6-7.627-.962-.955Zm5.723 1.328-1.38-1.369 2.523-1ZM24.388 68.631a4.039 4.039 0 0 0-5.229 1.957 3.567 3.567 0 0 0 1.522 5.216 4.527 4.527 0 0 0 3.576.221l-.061-1.639a3.672 3.672 0 0 1-2.761-.027 2.1 2.1 0 0 1-.719-3 2.228 2.228 0 0 1 2.932-1.216 3.234 3.234 0 0 1 1.7 1.967l1.41-1.044a4.513 4.513 0 0 0-2.37-2.435ZM34.591 71.761l-4.262 7.369 1.754.193.78-1.375 3.188.351.379 1.5 1.8.2-2.262-8.087Zm-.933 4.692 1.287-2.311.685 2.528ZM49.141 70.831l-6.92 1.3.318 1.565 2.571-.482 1.232 6.054 1.789-.335-1.232-6.054 2.56-.479ZM53.662 68.961l1.602-.786 3.68 6.91-1.601.786ZM62.38 62.876a3.707 3.707 0 0 0 .071 5.648 4.116 4.116 0 0 0 5.863.246 3.708 3.708 0 0 0-.03-5.608 4.178 4.178 0 0 0-5.904-.286Zm4.714 4.683a2.327 2.327 0 0 1-3.392-.15 2.15 2.15 0 0 1-.1-3.322 2.38 2.38 0 0 1 3.456.214 2.1 2.1 0 0 1 .036 3.258ZM70.24 52.34l3.961 1.831-5.645 1.546-.469.939 7.3 3.351.752-1.509c-1.374-.631-2.764-1.282-4.147-1.917l5.917-1.629.373-.749-7.3-3.351ZM38.257 56.596 23.278 30.087l-.962-1.7-.887-1.567h-2.135l2.813 4.98.88 1.555 16.207 28.681 19.9-35.215H38.258Zm1.876-12.17h6.877l-6.877 12.17Zm7.893-1.8h-7.893v-14.01h15.809Z" class="a"/></g></svg>