<svg xmlns="http://www.w3.org/2000/svg" width="20" height="20" fill="none" viewBox="0 0 20 20"><circle cx="10" cy="10" r="9" stroke="#E8C143" stroke-width="2"/><path fill="#E8C143" d="m11.417 8.396-2.75.316-.098.418.541.09c.352.077.422.193.346.516l-.887 3.814c-.232.986.127 1.45.97 1.45.655 0 1.414-.277 1.758-.658l.106-.457c-.24.193-.591.27-.823.27-.33 0-.45-.212-.366-.586l1.203-5.173ZM11.5 6.1c0 .292-.127.572-.352.778-.225.206-.53.322-.848.322-.319 0-.624-.116-.85-.322A1.055 1.055 0 0 1 9.1 6.1c0-.292.126-.572.35-.778.226-.206.531-.322.85-.322.318 0 .623.116.848.322.226.206.352.486.352.778Z"/></svg>