<svg xmlns="http://www.w3.org/2000/svg" width="18" height="20" fill="none" viewBox="0 0 18 20"><path stroke="#E8C143" stroke-linecap="round" stroke-linejoin="round" stroke-width="2" d="M3.67 16.769C3.143 17.784 3.854 19 4.99 19h8.004c1.1 0 1.853-1.163 1.359-2.152a6.028 6.028 0 0 0-2.29-2.475A7.036 7.036 0 0 0 16 8.043C16 4.15 12.866 1 9.002 1 5.137 1 2 4.15 2 8.042a7.041 7.041 0 0 0 3.927 6.328"/><path fill="#E8C143" d="M11.23 8.5c.509 0 .893.474.734.939C11.554 10.636 10.382 11.5 9 11.5s-2.555-.864-2.964-2.061c-.159-.465.225-.939.734-.939h4.46Z"/></svg>