<svg xmlns="http://www.w3.org/2000/svg" width="20" height="20" fill="none" viewBox="0 0 20 20"><path stroke="#E8C143" stroke-linecap="round" stroke-linejoin="round" stroke-width="2" d="m10 16.426-4.453 2.448a.98.98 0 0 1-1.078-.077 1.058 1.058 0 0 1-.346-.463 1.108 1.108 0 0 1-.058-.584l.852-5.184-3.605-3.673a1.075 1.075 0 0 1-.282-.508 1.11 1.11 0 0 1 .02-.586c.059-.19.168-.359.314-.487a.997.997 0 0 1 .513-.238l4.98-.756L9.084 1.6c.084-.18.214-.332.376-.438a.985.985 0 0 1 1.08 0c.162.106.292.258.376.438l2.227 4.718 4.98.756c.189.028.367.11.513.238.146.128.255.297.314.487.06.19.066.393.02.586-.047.194-.144.37-.282.508l-3.603 3.673.85 5.184c.034.197.014.4-.058.584a1.057 1.057 0 0 1-.346.463.98.98 0 0 1-1.077.077l-4.453-2.448Z"/></svg>