<svg xmlns="http://www.w3.org/2000/svg" width="22" height="22" viewBox="0 0 22 22"><defs><style>.a{fill:none;stroke:#efc109;stroke-linecap:round;stroke-linejoin:round;stroke-width:2px}</style></defs><g transform="translate(1 1)"><g transform="translate(6.597 3.619)"><path d="M0 9.928a3.639 3.639 0 0 0 3.291 1.688 3.957 3.957 0 0 0 2.9-1.129 2.113 2.113 0 0 0 .028-2.909 4.253 4.253 0 0 0-2.74-1.116c-1.319-.2-2.986-.5-3.4-1.985a1.662 1.662 0 0 1-.039-.166 1.716 1.716 0 0 1-.032-.323c0-1.337 1.574-2.422 3.515-2.422a3.716 3.716 0 0 1 3.29 1.57M3.403 0v13.183" class="a"/></g><circle cx="10" cy="10" r="10" class="a"/></g></svg>