<svg xmlns="http://www.w3.org/2000/svg" width="68" height="68" fill="none" viewBox="0 0 68 68"><rect width="68" height="68" fill="#E8C143" rx="34"/><path fill="#FAF3D9" d="M34.053 43.203c9.113 0 16.5-7.433 16.5-16.601 0-9.17-7.387-16.602-16.5-16.602-9.112 0-16.5 7.433-16.5 16.602 0 9.168 7.387 16.601 16.5 16.601Zm-9.747-20.685 6.15-.9 2.751-5.61a1.035 1.035 0 0 1 1.86 0l2.75 5.61 6.151.9c.851.123 1.191 1.175.575 1.778l-4.451 4.365 1.05 6.166c.146.85-.742 1.501-1.502 1.099l-5.503-2.911-5.503 2.91c-.76.403-1.648-.247-1.503-1.098l1.05-6.166-4.45-4.365c-.616-.603-.276-1.655.575-1.778Z"/><path fill="#FAF3D9" d="m53.844 50.048-5.836-11.744c-3.336 4.021-8.355 6.585-13.957 6.585-.189 0-.378-.004-.566-.01l6.126 12.329c.566 1.14 2.218 1.021 2.618-.187l2.476-7.469 7.42 2.49c1.202.403 2.286-.856 1.721-1.994h-.002ZM20.029 38.224l-5.875 11.824c-.566 1.14.52 2.397 1.72 1.994l7.421-2.49 2.476 7.47c.4 1.209 2.052 1.327 2.619.187l4.676-9.41-1.534-3.087c-4.608-.646-8.67-3.037-11.501-6.488h-.002Z"/></svg>